<?xml version="1.0" encoding="utf-8"?>
<!-- Generator: Adobe Illustrator 17.0.0, SVG Export Plug-In . SVG Version: 6.00 Build 0)  -->
<!DOCTYPE svg PUBLIC "-//W3C//DTD SVG 1.1//EN" "http://www.w3.org/Graphics/SVG/1.1/DTD/svg11.dtd">
<svg version="1.1" id="Layer_1" xmlns="http://www.w3.org/2000/svg" xmlns:xlink="http://www.w3.org/1999/xlink" x="0px" y="0px"
	 width="32px" height="32px" viewBox="0 0 32 32" enable-background="new 0 0 32 32" xml:space="preserve">
<path fill="#A7A7A7" d="M30,14c-1.105,0-2,0.896-2,2v12H4V16c0-1.104-0.894-2-2-2s-2,0.896-2,2v14c0,1.105,0.894,2,2,2h28
	c1.105,0,2-0.895,2-2V16C32,14.896,31.105,14,30,14z M18,14V1.756C18,0.786,17.105,0,16,0s-2,0.786-2,1.756V14H8l8,8l8-8H18z"/>
</svg>
