<?xml version="1.0" encoding="utf-8"?>
<!-- Generator: Adobe Illustrator 17.0.0, SVG Export Plug-In . SVG Version: 6.00 Build 0)  -->
<!DOCTYPE svg PUBLIC "-//W3C//DTD SVG 1.1//EN" "http://www.w3.org/Graphics/SVG/1.1/DTD/svg11.dtd">
<svg version="1.1" id="Layer_1" xmlns="http://www.w3.org/2000/svg" xmlns:xlink="http://www.w3.org/1999/xlink" x="0px" y="0px"
	 width="32px" height="32px" viewBox="0 0 32 32" enable-background="new 0 0 32 32" xml:space="preserve">
<path fill="#A7A7A7" d="M30,0H2C0.895,0,0,0.894,0,2v22c0,1.105,0.895,2,2,2h12v2H8c-1.104,0-2,0.895-2,2v2h20v-2
	c0-1.105-0.895-2-2-2h-6v-2h12c1.105,0,2-0.895,2-2V2C32,0.895,31.105,0,30,0z M28,22H4V4h24V22z"/>
</svg>
